filtEMG_segment_2.mot
version=1
nRows=129
nColumns=4
inDegrees=no
endheader
                Time	                LMEH	                LBIF	                LREF	
          1.61500000	          0.00449583	          0.01523129	          0.00902027	
          1.62000000	          0.00437846	          0.01498745	          0.00793008	
          1.62500000	          0.00420671	          0.01477854	          0.00702979	
          1.63000000	          0.00398657	          0.01462671	          0.00635965	
          1.63500000	          0.00372763	          0.01455190	          0.00594432	
          1.64000000	          0.00344246	          0.01456943	          0.00579139	
          1.64500000	          0.00314566	          0.01468782	          0.00589118	
          1.65000000	          0.00285283	          0.01490728	          0.00621761	
          1.65500000	          0.00257937	          0.01521894	          0.00673018	
          1.66000000	          0.00233942	          0.01560500	          0.00737705	
          1.66500000	          0.00214487	          0.01603983	          0.00809868	
          1.67000000	          0.00200449	          0.01649181	          0.00883219	
          1.67500000	          0.00192342	          0.01692579	          0.00951579	
          1.68000000	          0.00190282	          0.01730591	          0.01009312	
          1.68500000	          0.00193995	          0.01759845	          0.01051722	
          1.69000000	          0.00202839	          0.01777458	          0.01075368	
          1.69500000	          0.00215862	          0.01781264	          0.01078283	
          1.70000000	          0.00231885	          0.01769982	          0.01060091	
          1.70500000	          0.00249594	          0.01743325	          0.01021987	
          1.71000000	          0.00267644	          0.01702030	          0.00966620	
          1.71500000	          0.00284773	          0.01647827	          0.00897863	
          1.72000000	          0.00299895	          0.01583342	          0.00820512	
          1.72500000	          0.00312191	          0.01511948	          0.00739927	
          1.73000000	          0.00321171	          0.01437575	          0.00661659	
          1.73500000	          0.00326706	          0.01364491	          0.00591075	
          1.74000000	          0.00329031	          0.01297050	          0.00533023	
          1.74500000	          0.00328709	          0.01239439	          0.00491543	
          1.75000000	          0.00326563	          0.01195419	          0.00469650	
          1.75500000	          0.00323582	          0.01168079	          0.00469187	
          1.76000000	          0.00320804	          0.01159617	          0.00490750	
          1.76500000	          0.00319197	          0.01171161	          0.00533686	
          1.77000000	          0.00319530	          0.01202653	          0.00596159	
          1.77500000	          0.00322278	          0.01252803	          0.00675267	
          1.78000000	          0.00327547	          0.01319126	          0.00767210	
          1.78500000	          0.00335036	          0.01398061	          0.00867500	
          1.79000000	          0.00344053	          0.01485177	          0.00971206	
          1.79500000	          0.00353574	          0.01575444	          0.01073223	
          1.80000000	          0.00362345	          0.01663557	          0.01168556	
          1.80500000	          0.00369022	          0.01744290	          0.01252600	
          1.81000000	          0.00372324	          0.01812851	          0.01321408	
          1.81500000	          0.00371199	          0.01865215	          0.01371926	
          1.82000000	          0.00364962	          0.01898404	          0.01402170	
          1.82500000	          0.00353407	          0.01910693	          0.01411330	
          1.83000000	          0.00336869	          0.01901724	          0.01399799	
          1.83500000	          0.00316225	          0.01872525	          0.01369107	
          1.84000000	          0.00292841	          0.01825418	          0.01321760	
          1.84500000	          0.00268460	          0.01763840	          0.01261020	
          1.85000000	          0.00245052	          0.01692089	          0.01190617	
          1.85500000	          0.00224622	          0.01615000	          0.01114444	
          1.86000000	          0.00209029	          0.01537606	          0.01036257	
          1.86500000	          0.00199795	          0.01464780	          0.00959410	
          1.87000000	          0.00197954	          0.01400912	          0.00886656	
          1.87500000	          0.00203944	          0.01349625	          0.00820016	
          1.88000000	          0.00217552	          0.01313557	          0.00760738	
          1.88500000	          0.00237916	          0.01294221	          0.00709330	
          1.89000000	          0.00263598	          0.01291946	          0.00665658	
          1.89500000	          0.00292695	          0.01305899	          0.00629104	
          1.90000000	          0.00323006	          0.01334185	          0.00598748	
          1.90500000	          0.00352218	          0.01374019	          0.00573562	
          1.91000000	          0.00378103	          0.01421949	          0.00552602	
          1.91500000	          0.00398706	          0.01474119	          0.00535169	
          1.92000000	          0.00412510	          0.01526553	          0.00520929	
          1.92500000	          0.00418555	          0.01575438	          0.00509978	
          1.93000000	          0.00416514	          0.01617381	          0.00502853	
          1.93500000	          0.00406709	          0.01649629	          0.00500468	
          1.94000000	          0.00390071	          0.01670226	          0.00503997	
          1.94500000	          0.00368052	          0.01678101	          0.00514704	
          1.95000000	          0.00342495	          0.01673081	          0.00533745	
          1.95500000	          0.00315471	          0.01655843	          0.00561953	
          1.96000000	          0.00289104	          0.01627797	          0.00599639	
          1.96500000	          0.00265394	          0.01590933	          0.00646435	
          1.97000000	          0.00246059	          0.01547645	          0.00701197	
          1.97500000	          0.00232398	          0.01500549	          0.00761977	
          1.98000000	          0.00225205	          0.01452307	          0.00826089	
          1.98500000	          0.00224716	          0.01405472	          0.00890260	
          1.99000000	          0.00230618	          0.01362365	          0.00950843	
          1.99500000	          0.00242095	          0.01324969	          0.01004102	
          2.00000000	          0.00257920	          0.01294852	          0.01046523	
          2.00500000	          0.00276583	          0.01273116	          0.01075127	
          2.01000000	          0.00296434	          0.01260368	          0.01087765	
          2.01500000	          0.00315833	          0.01256705	          0.01083354	
          2.02000000	          0.00333294	          0.01261733	          0.01062050	
          2.02500000	          0.00347604	          0.01274608	          0.01025309	
          2.03000000	          0.00357911	          0.01294106	          0.00975856	
          2.03500000	          0.00363773	          0.01318724	          0.00917538	
          2.04000000	          0.00365163	          0.01346803	          0.00855072	
          2.04500000	          0.00362439	          0.01376674	          0.00793704	
          2.05000000	          0.00356276	          0.01406795	          0.00738805	
          2.05500000	          0.00347573	          0.01435880	          0.00695433	
          2.06000000	          0.00337349	          0.01463003	          0.00667904	
          2.06500000	          0.00326630	          0.01487642	          0.00659411	
          2.07000000	          0.00316347	          0.01509677	          0.00671721	
          2.07500000	          0.00307255	          0.01529335	          0.00705000	
          2.08000000	          0.00299863	          0.01547077	          0.00757762	
          2.08500000	          0.00294409	          0.01563455	          0.00826973	
          2.09000000	          0.00290853	          0.01578956	          0.00908297	
          2.09500000	          0.00288910	          0.01593856	          0.00996464	
          2.10000000	          0.00288106	          0.01608114	          0.01085728	
          2.10500000	          0.00287851	          0.01621323	          0.01170380	
          2.11000000	          0.00287528	          0.01632726	          0.01245246	
          2.11500000	          0.00286582	          0.01641303	          0.01306136	
          2.12000000	          0.00284601	          0.01645919	          0.01350187	
          2.12500000	          0.00281376	          0.01645505	          0.01376067	
          2.13000000	          0.00276938	          0.01639258	          0.01384017	
          2.13500000	          0.00271563	          0.01626816	          0.01375733	
          2.14000000	          0.00265749	          0.01608397	          0.01354114	
          2.14500000	          0.00260153	          0.01584858	          0.01322896	
          2.15000000	          0.00255520	          0.01557694	          0.01286230	
          2.15500000	          0.00252583	          0.01528947	          0.01248256	
          2.16000000	          0.00251971	          0.01501050	          0.01212698	
          2.16500000	          0.00254127	          0.01476627	          0.01182552	
          2.17000000	          0.00259241	          0.01458262	          0.01159858	
          2.17500000	          0.00267227	          0.01448258	          0.01145604	
          2.18000000	          0.00277724	          0.01448427	          0.01139736	
          2.18500000	          0.00290139	          0.01459912	          0.01141285	
          2.19000000	          0.00303718	          0.01483055	          0.01148578	
          2.19500000	          0.00317638	          0.01517345	          0.01159514	
          2.20000000	          0.00331104	          0.01561417	          0.01171867	
          2.20500000	          0.00343443	          0.01613133	          0.01183586	
          2.21000000	          0.00354170	          0.01669721	          0.01193050	
          2.21500000	          0.00363033	          0.01727958	          0.01199256	
          2.22000000	          0.00370015	          0.01784406	          0.01201913	
          2.22500000	          0.00375305	          0.01835654	          0.01201443	
          2.23000000	          0.00379240	          0.01878569	          0.01198880	
          2.23500000	          0.00382226	          0.01910528	          0.01195693	
          2.24000000	          0.00384651	          0.01929617	          0.01193555	
          2.24500000	          0.00386810	          0.01934770	          0.01194089	
          2.25000000	          0.00388843	          0.01925853	          0.01198627	
          2.25500000	          0.00390707	          0.01903669	          0.01207999	
